<svg width="30" height="31" viewBox="0 0 30 31" fill="none" xmlns="http://www.w3.org/2000/svg">
<rect y="0.612061" width="30" height="30" rx="15" fill="#872BFF"/>
<path fill-rule="evenodd" clip-rule="evenodd" d="M15 10.6121C12.2385 10.6121 10 12.8506 10 15.6121C10 18.3735 12.2385 20.6121 15 20.6121C17.7614 20.6121 20 18.3735 20 15.6121C20 12.8506 17.7614 10.6121 15 10.6121ZM15 18.8577C13.2075 18.8577 11.7543 17.4045 11.7543 15.6121C11.7543 13.8196 13.2075 12.3664 15 12.3664C16.7925 12.3664 18.2456 13.8196 18.2456 15.6121C18.2456 17.4045 16.7925 18.8577 15 18.8577Z" fill="white"/>
<path d="M20.4167 11.4454C21.107 11.4454 21.6667 10.8857 21.6667 10.1954C21.6667 9.5051 21.107 8.94539 20.4167 8.94539C19.7263 8.94539 19.1667 9.5051 19.1667 10.1954C19.1667 10.8857 19.7263 11.4454 20.4167 11.4454Z" fill="white"/>
<path fill-rule="evenodd" clip-rule="evenodd" d="M15 5.61206C12.2842 5.61206 11.9436 5.62356 10.877 5.67223C9.81267 5.72081 9.08567 5.88981 8.44958 6.13706C7.792 6.39256 7.23433 6.73448 6.67842 7.29048C6.12242 7.8464 5.7805 8.40407 5.525 9.06166C5.27775 9.69774 5.10875 10.4247 5.06017 11.4891C5.0115 12.5557 5 12.8963 5 15.612C5 18.3279 5.0115 18.6684 5.06017 19.735C5.10875 20.7995 5.27775 21.5264 5.525 22.1625C5.7805 22.82 6.12242 23.3777 6.67842 23.9337C7.23433 24.4896 7.792 24.8316 8.44958 25.0871C9.08567 25.3343 9.81267 25.5033 10.877 25.5519C11.9436 25.6006 12.2842 25.6121 15 25.6121C17.7158 25.6121 18.0564 25.6006 19.123 25.5519C20.1873 25.5033 20.9143 25.3343 21.5504 25.0871C22.208 24.8316 22.7657 24.4896 23.3216 23.9337C23.8775 23.3777 24.2195 22.82 24.475 22.1625C24.7222 21.5264 24.8912 20.7995 24.9398 19.735C24.9885 18.6684 25 18.3279 25 15.612C25 12.8963 24.9885 12.5557 24.9398 11.4891C24.8912 10.4247 24.7222 9.69774 24.475 9.06166C24.2195 8.40407 23.8775 7.8464 23.3216 7.29048C22.7657 6.73448 22.208 6.39256 21.5504 6.13706C20.9143 5.88981 20.1873 5.72081 19.123 5.67223C18.0564 5.62356 17.7158 5.61206 15 5.61206ZM15 7.4139C17.6701 7.4139 17.9864 7.42407 19.0408 7.47215C20.0158 7.51665 20.5453 7.67957 20.8977 7.81649C21.3645 7.9979 21.6976 8.21457 22.0475 8.56449C22.3975 8.91449 22.6142 9.24758 22.7956 9.71433C22.9325 10.0667 23.0954 10.5962 23.1399 11.5712C23.188 12.6257 23.1982 12.9419 23.1982 15.612C23.1982 18.2822 23.188 18.5984 23.1399 19.653C23.0954 20.628 22.9325 21.1574 22.7956 21.5098C22.6142 21.9765 22.3975 22.3097 22.0476 22.6596C21.6976 23.0096 21.3645 23.2262 20.8977 23.4076C20.5453 23.5446 20.0158 23.7075 19.0408 23.752C17.9866 23.8001 17.6703 23.8103 15 23.8103C12.3297 23.8103 12.0135 23.8001 10.9592 23.752C9.98417 23.7075 9.45467 23.5446 9.10225 23.4076C8.6355 23.2262 8.30242 23.0096 7.9525 22.6596C7.60258 22.3097 7.38583 21.9765 7.20442 21.5098C7.0675 21.1574 6.90458 20.628 6.86008 19.653C6.812 18.5984 6.80183 18.2822 6.80183 15.612C6.80183 12.9419 6.812 12.6257 6.86008 11.5712C6.90458 10.5962 7.0675 10.0667 7.20442 9.71433C7.38583 9.24758 7.6025 8.91449 7.9525 8.56457C8.30242 8.21457 8.6355 7.9979 9.10225 7.81649C9.45467 7.67957 9.98417 7.51665 10.9592 7.47215C12.0136 7.42407 12.3299 7.4139 15 7.4139Z" fill="white"/>
</svg>
