<svg width="30" height="31" viewBox="0 0 30 31" fill="none" xmlns="http://www.w3.org/2000/svg">
<path d="M15 30.6121C23.2843 30.6121 30 23.8963 30 15.6121C30 7.32779 23.2843 0.612061 15 0.612061C6.71573 0.612061 0 7.32779 0 15.6121C0 23.8963 6.71573 30.6121 15 30.6121Z" fill="#872BFF"/>
<path d="M24.188 11.392C23.5452 11.6771 22.8538 11.8699 22.1286 11.956C22.869 11.5124 23.4372 10.8105 23.7054 9.97273C23.0126 10.3837 22.2449 10.6819 21.4286 10.8426C20.7745 10.146 19.8427 9.71069 18.8108 9.71069C16.8311 9.71069 15.2254 11.3164 15.2254 13.2961C15.2254 13.5771 15.2572 13.8507 15.3187 14.1133C12.3389 13.9638 9.69687 12.5365 7.92836 10.3666C7.61979 10.896 7.44278 11.5124 7.44278 12.1693C7.44278 13.413 8.07622 14.5109 9.03776 15.1537C8.4503 15.1352 7.89707 14.974 7.4139 14.7047C7.41363 14.72 7.41363 14.7352 7.41363 14.7502C7.41363 16.4874 8.65004 17.9364 10.2899 18.2655C9.98939 18.3479 9.672 18.3915 9.34552 18.3915C9.11396 18.3915 8.88962 18.3693 8.6709 18.3276C9.12706 19.7517 10.4509 20.7884 12.0202 20.8175C10.7929 21.7793 9.24712 22.3523 7.56685 22.3523C7.27807 22.3523 6.99196 22.3355 6.71201 22.3021C8.29789 23.3197 10.183 23.9131 12.2077 23.9131C18.8025 23.9131 22.4091 18.4498 22.4091 13.7114C22.4091 13.556 22.4056 13.4012 22.3987 13.2477C23.0998 12.7424 23.7075 12.111 24.188 11.392Z" fill="white"/>
</svg>
