<svg width="203" height="206" viewBox="0 0 203 206" fill="none" xmlns="http://www.w3.org/2000/svg">
<path d="M15.1851 147.579C14.8904 147.796 14.5077 147.792 14.2169 147.627C14.1038 147.562 13.9999 147.482 13.9306 147.378C12.8696 145.898 11.8594 144.403 10.8999 142.895C10.6317 142.464 10.7529 141.913 11.1835 141.645C11.6141 141.377 12.1654 141.498 12.4336 141.928C13.3539 143.393 14.3479 144.878 15.3857 146.324C15.6723 146.723 15.5835 147.292 15.1851 147.579ZM81.9358 23.882C82.4035 23.699 82.6239 23.1614 82.4317 22.7099C82.2487 22.2422 81.7111 22.0219 81.2596 22.214C79.5755 22.8811 77.9236 23.5665 76.3041 24.2703C75.8526 24.4625 75.6323 25.0001 75.8244 25.4516C75.9055 25.6475 76.0395 25.7878 76.201 25.8798C76.4433 26.0177 76.7339 26.0333 77.0057 25.9313C78.616 25.2437 80.2679 24.5582 81.9266 23.8982L81.9358 23.882ZM9.77397 137.357C8.93422 135.788 8.15435 134.19 7.4483 132.612C7.23998 132.151 6.70936 131.956 6.25783 132.148C5.7971 132.356 5.60209 132.887 5.79427 133.339C6.51424 134.967 7.31722 136.6 8.18008 138.203C8.26336 138.358 8.39038 138.473 8.53578 138.556C8.79427 138.703 9.12628 138.72 9.40958 138.561C9.84718 138.318 10.026 137.778 9.78316 137.341L9.77397 137.357ZM62.906 31.4671C62.6885 31.0225 62.1233 30.8507 61.6949 31.0774C60.0687 31.9057 58.4841 32.7362 56.9317 33.5852C56.4941 33.8281 56.3314 34.3771 56.5742 34.8147C56.6575 34.969 56.7845 35.0841 56.9299 35.1668C57.1884 35.3139 57.5204 35.3317 57.8037 35.1721C59.3469 34.3393 60.9154 33.4996 62.5163 32.6782C62.9609 32.4607 63.1489 31.9047 62.906 31.4671ZM3.96969 122.677C3.8374 122.195 3.34578 121.894 2.85498 122.042C2.37337 122.175 2.07223 122.666 2.22068 123.157C2.66878 124.888 3.19989 126.623 3.80705 128.337C3.87891 128.549 4.03601 128.724 4.21371 128.825C4.43989 128.954 4.70506 128.976 4.96773 128.89C5.44239 128.733 5.6789 128.204 5.52126 127.73C4.92803 126.066 4.42003 124.366 3.98585 122.686L3.96969 122.677ZM101.48 14.9426C99.7515 15.4991 98.0648 16.0578 96.3782 16.6165C95.9036 16.7741 95.6509 17.2933 95.8085 17.768C95.8804 17.9799 96.0375 18.1549 96.2152 18.256C96.4252 18.3755 96.7065 18.4073 96.9439 18.3284C98.6143 17.7606 100.301 17.2019 102.004 16.6524C102.478 16.4947 102.747 15.9847 102.59 15.5101C102.432 15.0354 101.922 14.7666 101.447 14.9243L101.48 14.9426ZM29.6461 161.967C28.3113 160.779 27.0203 159.553 25.7708 158.329C25.4243 157.96 24.8319 157.987 24.4889 158.326C24.1368 158.682 24.1471 159.265 24.512 159.601C25.7685 160.851 27.101 162.08 28.4427 163.292C28.4912 163.32 28.5466 163.373 28.5951 163.4C28.9505 163.602 29.4368 163.537 29.7198 163.228C30.0558 162.863 30.0201 162.286 29.6553 161.95L29.6461 161.967ZM92.4654 18.9452C92.2985 18.4867 91.7793 18.2341 91.3047 18.3917C89.6066 19.0081 87.9248 19.6336 86.2682 20.2522C85.8005 20.4352 85.5732 20.9474 85.7308 21.4221C85.8119 21.6179 85.9528 21.7836 86.1305 21.8847C86.3567 22.0134 86.638 22.0452 86.9099 21.9433C88.5503 21.3155 90.223 20.7061 91.921 20.0898C92.3795 19.9229 92.6322 19.4037 92.4746 18.9291L92.4654 18.9452ZM123.193 9.63281C123.06 9.1512 122.569 8.85007 122.087 8.98236C120.331 9.43743 118.617 9.89473 116.902 10.352C116.42 10.4843 116.135 10.9851 116.268 11.4667C116.321 11.711 116.494 11.8952 116.688 12.0055C116.882 12.1158 117.138 12.1545 117.366 12.0918C119.065 11.6254 120.779 11.1681 122.526 10.7291C123.008 10.5969 123.309 10.1052 123.176 9.62362L123.193 9.63281ZM22.0958 154.527C20.8853 153.196 19.7255 151.852 18.6234 150.519C18.3114 150.128 17.7396 150.08 17.3482 150.392C16.9568 150.704 16.9094 151.276 17.2214 151.667C18.3305 153.026 19.5134 154.404 20.7563 155.753C20.8186 155.832 20.8994 155.877 20.9802 155.923C21.3195 156.116 21.7459 156.081 22.0359 155.797C22.4041 155.451 22.4262 154.886 22.0958 154.527ZM107.133 15.0799C108.817 14.5627 110.518 14.0547 112.251 13.5651C112.732 13.4328 113.001 12.9228 112.885 12.4504C112.753 11.9688 112.243 11.7 111.77 11.8161C110.028 12.3219 108.312 12.8207 106.627 13.3379C106.153 13.4955 105.877 13.9802 106.025 14.471C106.088 14.6991 106.245 14.874 106.439 14.9844C106.649 15.1039 106.905 15.1426 107.142 15.0638L107.133 15.0799ZM9.53815 77.2985C9.97434 77.5467 10.5067 77.4005 10.771 76.9735C11.6351 75.4549 12.5892 73.9661 13.5756 72.4957C13.8561 72.0779 13.7445 71.5224 13.3266 71.2419C12.9158 70.9868 12.3534 71.0731 12.0729 71.4909C11.052 72.9844 10.0865 74.5309 9.18779 76.0726C8.93959 76.5088 9.07661 77.0572 9.5128 77.3055L9.53815 77.2985ZM6.18182 86.4667C6.80138 84.8517 7.51314 83.225 8.28952 81.6351C8.50541 81.1805 8.3177 80.646 7.86312 80.4301C7.40854 80.2142 6.87399 80.4019 6.6581 80.8565C5.86334 82.4787 5.14016 84.1631 4.49302 85.8265C4.33702 86.251 4.49465 86.7257 4.88238 86.9463C4.91469 86.9647 4.96316 86.9923 4.99547 87.0106C5.46843 87.1942 5.98905 86.9558 6.16344 86.499L6.18182 86.4667ZM15.4287 68.3747C15.4287 68.3747 15.5095 68.4206 15.5418 68.439C15.9295 68.6597 16.4342 68.5619 16.7033 68.2017C17.7591 66.835 18.8909 65.4473 20.0619 64.1034C20.3817 63.7293 20.3461 63.153 19.972 62.8332C19.5979 62.5134 19.0216 62.549 18.7018 62.9231C17.5124 64.2993 16.3552 65.694 15.2811 67.0931C14.9683 67.4925 15.0546 68.0549 15.4379 68.3585L15.4287 68.3747ZM22.3673 60.2398C22.3673 60.2398 22.4782 60.3456 22.5428 60.3824C22.8982 60.5846 23.3431 60.5169 23.6331 60.2328C24.832 58.9903 26.1231 57.7361 27.4281 56.5325C27.7964 56.186 27.8184 55.6211 27.4719 55.2529C27.1254 54.8846 26.5605 54.8626 26.1923 55.2091C24.8689 56.4449 23.5686 57.7153 22.3351 58.981C21.983 59.3367 21.9933 59.92 22.3582 60.2559L22.3673 60.2398ZM66.4659 30.2848C66.7082 30.4227 67.0311 30.4567 67.3052 30.3133C68.8854 29.5657 70.491 28.8112 72.138 28.0589C72.5988 27.8506 72.7938 27.32 72.5854 26.8593C72.3771 26.3985 71.8465 26.2035 71.3858 26.4119C69.7225 27.155 68.117 27.9095 66.5183 28.6893C66.0738 28.9069 65.8788 29.4375 66.0871 29.8982C66.1612 30.0687 66.2952 30.2091 66.4567 30.301L66.4659 30.2848ZM2.23787 112.303C2.19777 111.809 1.76828 111.437 1.25882 111.467C0.765506 111.508 0.392798 111.937 0.4237 112.446C0.560665 114.235 0.787589 116.054 1.08361 117.826C1.13485 118.112 1.30587 118.338 1.53204 118.466C1.70975 118.568 1.92424 118.604 2.13398 118.574C2.62952 118.492 2.96295 118.019 2.87217 117.54C2.57392 115.809 2.36091 114.041 2.22867 112.319L2.23787 112.303ZM38.5198 46.2482C38.6053 46.361 38.693 46.4324 38.8061 46.4967C39.113 46.6714 39.4888 46.6499 39.7743 46.4488C41.1858 45.4341 42.6387 44.4217 44.1331 43.4115C44.5476 43.1341 44.6527 42.5736 44.3753 42.1592C44.0978 41.7447 43.5374 41.6396 43.1229 41.917C41.6031 42.9342 40.1248 43.9536 38.7042 44.9845C38.3059 45.2711 38.217 45.8407 38.5036 46.239L38.5198 46.2482ZM4.48944 91.4704C4.63151 90.9952 4.36775 90.4816 3.88336 90.3557C3.40817 90.2136 2.91067 90.4865 2.76859 90.9617C2.2507 92.6987 1.81358 94.4817 1.46171 96.2276C1.39093 96.6151 1.57838 96.9997 1.90148 97.1836C1.98226 97.2296 2.06304 97.2755 2.1622 97.2892C2.63963 97.3897 3.1232 97.0661 3.22378 96.5887C3.57343 94.8842 3.99912 93.159 4.48944 91.4704ZM35.6832 48.3768C35.3713 47.9854 34.8086 47.9218 34.4264 48.2177C32.9921 49.3477 31.5994 50.4799 30.2481 51.6144C29.8729 51.9355 29.8255 52.5073 30.1466 52.8826C30.209 52.9608 30.2968 53.0321 30.3937 53.0873C30.7168 53.2712 31.1341 53.252 31.431 52.9932C32.7569 51.8657 34.1244 50.7404 35.5495 49.6266C35.9408 49.3146 36.0044 48.752 35.7086 48.3698L35.6832 48.3768ZM2.40323 101.789C2.45534 101.284 2.10411 100.849 1.59911 100.797C1.09411 100.745 0.658999 101.096 0.606889 101.601C0.418793 103.397 0.304509 105.214 0.27323 107.036C0.271541 107.377 0.447293 107.669 0.738089 107.835C0.867331 107.908 1.01496 107.95 1.16483 107.949C1.67206 107.96 2.06788 107.565 2.07849 107.058C2.1145 105.303 2.21736 103.544 2.39403 101.805L2.40323 101.789ZM53.5088 36.5563C53.2659 36.1187 52.7077 35.9722 52.2609 36.2312C50.6879 37.1539 49.1564 38.0789 47.6503 38.9969C47.2196 39.2652 47.0984 39.8164 47.3667 40.2471C47.443 40.376 47.5538 40.4819 47.6831 40.5554C47.9577 40.7117 48.3151 40.7226 48.6076 40.5468C50.0976 39.6196 51.6198 38.7108 53.1675 37.795C53.6051 37.5521 53.7516 36.9939 53.4834 36.5633L53.5088 36.5563ZM158.796 203.762C157.007 203.749 155.236 203.704 153.466 203.658C152.958 203.648 152.546 204.034 152.536 204.541C152.534 204.882 152.717 205.2 152.992 205.356C153.121 205.43 153.268 205.471 153.418 205.471C155.189 205.516 156.985 205.554 158.79 205.576C159.281 205.578 159.703 205.176 159.704 204.685C159.705 204.194 159.303 203.772 158.812 203.771L158.796 203.762ZM137.482 202.733C135.693 202.57 133.929 202.401 132.174 202.215C131.669 202.163 131.234 202.514 131.182 203.019C131.145 203.383 131.335 203.726 131.642 203.901C131.739 203.956 131.861 204.004 131.986 204.011C133.757 204.206 135.546 204.369 137.336 204.532C137.824 204.574 138.269 204.207 138.312 203.718C138.355 203.229 137.987 202.785 137.498 202.742L137.482 202.733ZM148.133 203.447C146.339 203.367 144.563 203.255 142.813 203.136C142.315 203.109 141.887 203.486 141.844 203.975C141.817 204.323 142.016 204.65 142.307 204.815C142.42 204.88 142.551 204.912 142.692 204.928C144.467 205.04 146.243 205.152 148.053 205.241C148.551 205.267 148.963 204.882 148.99 204.384C149.016 203.886 148.64 203.457 148.133 203.447ZM105.863 197.979C104.11 197.602 102.375 197.192 100.666 196.775C100.182 196.65 99.6912 196.948 99.5814 197.441C99.4853 197.836 99.6797 198.246 100.019 198.439C100.084 198.476 100.164 198.522 100.247 198.526C101.973 198.952 103.716 199.345 105.485 199.732C105.979 199.841 106.453 199.534 106.563 199.04C106.673 198.547 106.365 198.072 105.872 197.963L105.863 197.979ZM126.879 201.597C125.101 201.377 123.342 201.124 121.591 200.855C121.096 200.787 120.628 201.12 120.56 201.616C120.498 201.987 120.695 202.355 121.002 202.53C121.099 202.585 121.205 202.624 121.32 202.647C123.071 202.916 124.856 203.162 126.634 203.382C127.129 203.45 127.59 203.092 127.633 202.603C127.701 202.108 127.343 201.647 126.854 201.604L126.879 201.597ZM116.333 200.023C114.56 199.72 112.821 199.393 111.082 199.067C110.595 198.982 110.121 199.29 110.011 199.783C109.94 200.171 110.128 200.556 110.451 200.739C110.532 200.785 110.613 200.831 110.737 200.838C112.492 201.174 114.247 201.509 116.021 201.813C116.507 201.897 116.975 201.564 117.059 201.078C117.144 200.591 116.811 200.124 116.324 200.039L116.333 200.023ZM169.473 203.678C167.672 203.723 165.906 203.744 164.14 203.766C163.649 203.764 163.244 204.176 163.243 204.667C163.241 205.008 163.426 205.284 163.701 205.44C163.83 205.514 163.994 205.564 164.153 205.548C165.935 205.536 167.726 205.507 169.527 205.462C170.027 205.447 170.416 205.027 170.417 204.536C170.403 204.036 169.982 203.647 169.491 203.646L169.473 203.678ZM190.778 202.392C188.996 202.554 187.224 202.7 185.451 202.847C184.958 202.887 184.585 203.316 184.616 203.826C184.633 204.134 184.827 204.395 185.069 204.533C185.214 204.615 185.403 204.659 185.579 204.651C187.351 204.505 189.14 204.368 190.931 204.19C191.425 204.15 191.79 203.695 191.75 203.202C191.71 202.708 191.255 202.343 190.762 202.383L190.778 202.392ZM202.395 202.009C202.33 201.522 201.875 201.157 201.388 201.222C199.611 201.451 197.852 201.648 196.094 201.845C195.591 201.901 195.235 202.34 195.291 202.842C195.333 203.144 195.495 203.386 195.737 203.524C195.899 203.616 196.088 203.659 196.288 203.645C198.047 203.448 199.831 203.245 201.608 203.015C202.095 202.95 202.46 202.495 202.395 202.009ZM180.128 203.218C178.332 203.33 176.571 203.418 174.794 203.498C174.293 203.512 173.905 203.933 173.935 204.442C173.943 204.767 174.128 205.043 174.386 205.191C174.532 205.273 174.696 205.324 174.871 205.316C176.648 205.237 178.435 205.142 180.231 205.03C180.74 204.999 181.113 204.57 181.073 204.076C181.033 203.583 180.612 203.194 180.119 203.234L180.128 203.218ZM46.6678 174.711C45.1536 173.763 43.674 172.793 42.2128 171.791C41.7972 171.469 41.2396 171.622 40.9683 172.023C40.6877 172.441 40.7994 172.997 41.2011 173.268C42.6623 174.271 44.1742 175.259 45.7045 176.216L45.7368 176.234C46.1568 176.473 46.6799 176.343 46.9513 175.941C47.2156 175.514 47.0878 174.95 46.677 174.694L46.6678 174.711ZM153.855 3.85487C154.35 3.77327 154.667 3.29085 154.586 2.79531C154.495 2.31593 154.022 1.98249 153.526 2.06408C151.752 2.4016 150.002 2.73216 148.269 3.07191C147.781 3.17885 147.456 3.63593 147.554 4.14066C147.615 4.4103 147.769 4.62673 147.996 4.75543C148.173 4.85655 148.404 4.90225 148.623 4.85574C150.356 4.51599 152.105 4.18543 153.88 3.84791L153.855 3.85487ZM143.001 4.1374C141.233 4.50026 139.482 4.87233 137.762 5.26278C137.274 5.36972 136.956 5.85214 137.063 6.34072C137.124 6.61035 137.288 6.81064 137.498 6.93014C137.692 7.04046 137.906 7.07696 138.141 7.03964C139.861 6.64919 141.603 6.29329 143.371 5.93042C143.859 5.82348 144.167 5.3572 144.069 4.85247C143.963 4.3639 143.48 4.04662 142.992 4.15355L143.001 4.1374ZM95.5016 195.441C93.7786 194.974 92.0647 194.49 90.3762 194C89.901 193.858 89.4035 194.131 89.2614 194.606C89.1399 195.007 89.316 195.45 89.6714 195.652C89.736 195.689 89.7845 195.716 89.8583 195.737C91.563 196.236 93.293 196.729 95.0322 197.205C95.5166 197.331 96.0141 197.058 96.14 196.574C96.2659 196.09 95.9768 195.583 95.5086 195.466L95.5016 195.441ZM55.8718 180.033C54.6579 179.385 53.4694 178.731 52.3062 178.069L51.2238 177.453C50.8567 177.158 50.2392 177.342 49.991 177.778C49.7428 178.214 49.8798 178.762 50.316 179.011L51.4145 179.636C52.5939 180.307 53.7894 180.987 55.0286 181.628C55.4648 181.876 56.0155 181.698 56.2475 181.252C56.4957 180.816 56.3242 180.291 55.8718 180.033ZM37.9005 168.695C36.4599 167.619 35.07 166.529 33.7054 165.431C33.3222 165.128 32.7459 165.163 32.433 165.563C32.1041 165.953 32.165 166.522 32.5645 166.835C33.936 167.958 35.3582 169.066 36.8149 170.152C36.8473 170.17 36.8796 170.189 36.9119 170.207C37.2996 170.428 37.8043 170.33 38.0826 169.954C38.3793 169.545 38.293 168.983 37.9005 168.695ZM132.538 6.43885C130.784 6.85241 129.03 7.26598 127.318 7.68177C126.837 7.81406 126.545 8.28953 126.652 8.7781C126.721 9.03158 126.869 9.22268 127.079 9.34218C127.273 9.45249 127.504 9.49818 127.732 9.43552C129.444 9.01972 131.182 8.59697 132.926 8.19956C133.415 8.09262 133.716 7.60099 133.609 7.11242C133.502 6.62385 133.01 6.32272 132.522 6.42966L132.538 6.43885ZM75.2519 188.858C73.5884 188.211 71.9341 187.548 70.3052 186.878C69.8415 186.678 69.3139 186.891 69.1303 187.364C68.949 187.795 69.1228 188.279 69.5105 188.5C69.5428 188.518 69.5751 188.537 69.6074 188.555C71.2433 189.251 72.8975 189.914 74.6025 190.563C75.0755 190.747 75.5961 190.508 75.7705 190.052C75.954 189.579 75.7318 189.067 75.2588 188.884L75.2519 188.858ZM85.2919 192.411C83.5987 191.854 81.9054 191.297 80.2397 190.691C79.7737 190.533 79.2531 190.772 79.0949 191.238C78.9389 191.662 79.131 192.114 79.5026 192.325C79.5511 192.353 79.5995 192.38 79.648 192.408C81.3229 192.997 83.0231 193.58 84.7417 194.13C85.2077 194.288 85.7214 194.024 85.8888 193.542C86.047 193.076 85.7833 192.563 85.3173 192.404L85.2919 192.411ZM165.133 0.947895C165.051 0.452359 164.578 0.118915 164.098 0.209702C162.326 0.505719 160.553 0.801735 158.813 1.11614C158.318 1.19773 157.984 1.67097 158.082 2.1757C158.133 2.46149 158.304 2.68712 158.531 2.81582C158.708 2.91694 158.923 2.95343 159.133 2.92308C160.873 2.60868 162.62 2.31962 164.392 2.02361C164.888 1.94202 165.221 1.46878 165.13 0.989395L165.133 0.947895ZM65.409 184.733C63.7754 183.996 62.1763 183.236 60.5956 182.443C60.141 182.227 59.6065 182.415 59.3836 182.844C59.1769 183.283 59.3323 183.799 59.7362 184.029L59.7847 184.056C61.3746 184.833 63.006 185.611 64.6558 186.358C65.1104 186.574 65.6379 186.36 65.8538 185.906C66.0697 185.451 65.8475 184.94 65.4021 184.708L65.409 184.733Z" fill="#872BFF"/>
</svg>
