<svg width="122" height="249" viewBox="0 0 122 249" fill="none" xmlns="http://www.w3.org/2000/svg">
<g filter="url(#filter0_d_1_994)">
<path d="M94.5072 34.4387C93.7773 32.8335 93.0314 31.2188 92.26 29.6105C92.0519 29.1614 92.2261 28.6159 92.6752 28.4079C93.1242 28.1998 93.6697 28.374 93.8778 28.8231C94.6652 30.4409 95.427 32.0652 96.1474 33.6863C96.3555 34.1354 96.1558 34.6873 95.6908 34.8859C95.4137 35.0235 95.0916 34.9827 94.8523 34.8397C94.6927 34.7444 94.5777 34.6107 94.4913 34.4292L94.5072 34.4387ZM91.5126 24.011C90.7062 22.4251 89.8838 20.8297 89.0359 19.2406C88.8023 18.798 88.2569 18.6238 87.8047 18.8733C87.3621 19.1069 87.2038 19.6618 87.4373 20.1045C88.2693 21.684 89.1012 23.2635 89.8917 24.8399C89.9717 24.9959 90.0867 25.1296 90.2303 25.2154C90.4856 25.3679 90.8172 25.3927 91.1038 25.2391C91.5464 25.0056 91.7366 24.4696 91.503 24.027L91.5126 24.011ZM106.205 64.8748C106.413 64.9987 106.668 65.0428 106.932 64.9626C107.41 64.815 107.69 64.3108 107.542 63.8329C107.019 62.1349 106.48 60.4273 105.926 58.7102C105.778 58.2323 105.255 57.9847 104.777 58.1323C104.299 58.2799 104.051 58.8031 104.199 59.281C104.763 60.9822 105.286 62.6802 105.793 64.3687C105.851 64.5981 106.004 64.7763 106.196 64.8907L106.205 64.8748ZM16.2577 201.937C15.4736 200.386 14.6927 198.794 13.9149 197.16C13.7068 196.711 13.1708 196.52 12.7058 196.719C12.2568 196.927 12.0665 197.463 12.2651 197.928C13.0494 199.587 13.8367 201.205 14.6208 202.756C14.7008 202.912 14.8253 203.03 14.9689 203.116C15.2243 203.268 15.5558 203.293 15.8424 203.139C16.2851 202.906 16.4593 202.36 16.2417 201.927L16.2577 201.937ZM86.4446 14.5534C85.5777 12.9962 84.6852 11.4455 83.7673 9.90128C83.5083 9.46506 82.9597 9.33228 82.5331 9.57539C82.0969 9.83445 81.964 10.383 82.2071 10.8097C83.1091 12.3444 84.0015 13.8951 84.862 15.4267C84.9515 15.5668 85.0602 15.675 85.1878 15.7512C85.4591 15.9133 85.8002 15.9222 86.0868 15.7686C86.5135 15.5255 86.6718 14.9705 86.4287 14.5438L86.4446 14.5534ZM102.858 54.7124C103.081 54.8459 103.362 54.8836 103.62 54.7779C104.091 54.6048 104.329 54.0975 104.172 53.6356C103.573 51.9568 102.973 50.278 102.332 48.5961C102.15 48.1406 101.626 47.893 101.171 48.0756C100.699 48.2487 100.468 48.7815 100.65 49.237C101.275 50.9093 101.884 52.5721 102.484 54.2509C102.551 54.4643 102.698 54.6171 102.873 54.7219L102.858 54.7124ZM9.68782 187.382C9.50523 186.926 8.97242 186.694 8.51693 186.877C8.06144 187.06 7.82978 187.592 8.01237 188.048C8.68514 189.749 9.38651 191.402 10.075 193.004C10.1615 193.186 10.2924 193.329 10.436 193.415C10.6754 193.558 10.9815 193.589 11.2491 193.467C11.7141 193.269 11.9202 192.742 11.7217 192.277C11.0332 190.675 10.3478 189.032 9.68142 187.356L9.68782 187.382ZM98.6897 44.2552C98.7666 44.4527 98.8976 44.5958 99.0571 44.6912C99.2965 44.8341 99.5867 44.8559 99.8606 44.7597C100.316 44.5771 100.548 44.0443 100.365 43.5888C99.7053 41.9389 99.0039 40.2858 98.3025 38.6327C98.1199 38.1772 97.5776 37.9615 97.1126 38.1601C96.6476 38.3586 96.4414 38.885 96.6399 39.35C97.3508 40.9871 98.0362 42.6307 98.6802 44.2711L98.6897 44.2552ZM5.96086 177.383C5.78779 176.911 5.29 176.657 4.8026 176.821C4.33115 176.994 4.0771 177.491 4.24064 177.979C4.83694 179.699 5.45232 181.387 6.05483 183.025C6.13172 183.222 6.2691 183.391 6.42868 183.486C6.65208 183.62 6.93269 183.657 7.20665 183.561C7.6781 183.388 7.90974 182.855 7.72714 182.4C7.12463 180.762 6.51569 179.1 5.91939 177.379L5.96086 177.383ZM108.032 185.199C107.503 186.919 106.952 188.603 106.378 190.252C106.239 190.667 106.405 191.113 106.772 191.332C106.82 191.361 106.884 191.399 106.932 191.427C107.395 191.595 107.914 191.343 108.082 190.88C108.665 189.215 109.235 187.499 109.774 185.763C109.926 185.291 109.664 184.788 109.176 184.627C108.703 184.475 108.191 184.753 108.039 185.225L108.032 185.199ZM104.52 195.248C103.87 196.916 103.172 198.556 102.477 200.155C102.286 200.582 102.45 201.07 102.833 201.298C102.865 201.317 102.897 201.336 102.929 201.356C103.388 201.565 103.92 201.363 104.113 200.894C104.843 199.273 105.526 197.624 106.195 195.924C106.379 195.471 106.145 194.919 105.683 194.751C105.214 194.558 104.704 194.795 104.51 195.264L104.52 195.248ZM80.9881 5.27492C80.0511 3.76257 79.0982 2.24071 78.1198 0.725254C77.8512 0.304997 77.2931 0.188152 76.8728 0.456748C76.4526 0.725344 76.3357 1.28343 76.6043 1.70369C77.5668 3.20961 78.5293 4.71553 79.4503 6.21834C79.5239 6.3489 79.642 6.44111 79.7537 6.50784C80.025 6.66988 80.3916 6.67234 80.6877 6.50281C81.1079 6.23421 81.2408 5.68566 80.9817 5.24945L80.9881 5.27492ZM110.836 174.923C110.422 176.668 109.976 178.393 109.524 180.093C109.419 180.485 109.605 180.899 109.94 181.099C110.004 181.138 110.084 181.185 110.167 181.191C110.648 181.328 111.145 181.04 111.281 180.558C111.743 178.842 112.189 177.117 112.597 175.347C112.717 174.856 112.42 174.375 111.929 174.255C111.437 174.134 110.957 174.432 110.836 174.923ZM100.216 204.953C99.413 206.552 98.5777 208.132 97.7391 209.644C97.4913 210.059 97.6422 210.604 98.0731 210.861L98.089 210.871C98.5199 211.128 99.0742 210.961 99.3156 210.521C100.173 208.976 101.018 207.381 101.841 205.75C102.066 205.3 101.874 204.753 101.44 204.537C100.99 204.311 100.451 204.488 100.226 204.937L100.216 204.953ZM111.968 169.731C111.889 170.117 112.068 170.506 112.387 170.696C112.467 170.744 112.563 170.801 112.671 170.801C113.156 170.896 113.646 170.582 113.741 170.097C114.104 168.366 114.429 166.59 114.738 164.804C114.816 164.31 114.493 163.835 113.999 163.756C113.505 163.678 113.031 164.001 112.952 164.495C112.652 166.265 112.305 168.006 111.968 169.731ZM115.777 127.362C115.777 127.687 115.956 127.967 116.212 128.119C116.355 128.205 116.518 128.259 116.693 128.256C117.194 128.251 117.591 127.839 117.587 127.339C117.561 125.57 117.513 123.766 117.44 121.968C117.419 121.458 116.998 121.076 116.504 121.106C115.994 121.126 115.612 121.547 115.642 122.041C115.715 123.839 115.767 125.602 115.793 127.371L115.777 127.362ZM115.021 148.67C114.987 149.018 115.179 149.349 115.466 149.52C115.578 149.587 115.709 149.622 115.849 149.641C116.346 149.678 116.782 149.31 116.836 148.823C116.985 147.05 117.119 145.268 117.246 143.46C117.283 142.963 116.89 142.533 116.393 142.496C115.895 142.459 115.466 142.851 115.429 143.349C115.311 145.141 115.187 146.907 115.031 148.654L115.021 148.67ZM42.8049 234.228C41.3528 233.36 39.9195 232.353 38.502 231.246C38.1157 230.95 37.5357 231.015 37.24 231.402C36.9347 231.804 37.0091 232.368 37.3954 232.664C38.8768 233.808 40.3739 234.854 41.8898 235.76C42.3207 236.017 42.8815 235.876 43.1293 235.461C43.3867 235.03 43.2613 234.479 42.8304 234.221L42.8049 234.228ZM21.4464 211.228C20.5478 209.761 19.6459 208.226 18.7725 206.643C18.5294 206.217 17.9744 206.058 17.5477 206.301C17.121 206.545 16.9627 207.1 17.2058 207.526C18.1016 209.144 19.0195 210.688 19.9246 212.181C19.9981 212.312 20.1163 212.404 20.228 212.471C20.4993 212.633 20.8658 212.635 21.162 212.466C21.5822 212.197 21.715 211.649 21.456 211.213L21.4464 211.228ZM62.6611 238.9C60.9369 239.104 59.2156 239.159 57.4813 239.054C56.9839 239.017 56.5544 239.41 56.5171 239.907C56.4987 240.264 56.6841 240.57 56.9554 240.732C57.0831 240.808 57.2138 240.843 57.3541 240.862C59.1714 240.973 61.0425 240.921 62.8591 240.707C63.3467 240.652 63.706 240.196 63.6509 239.708C63.5798 239.211 63.1392 238.861 62.6516 238.916L62.6611 238.9ZM114.56 160.281C115.054 160.359 115.522 160.011 115.585 159.507C115.833 157.75 116.075 155.968 116.276 154.182C116.329 153.695 115.971 153.243 115.483 153.189C114.979 153.127 114.543 153.494 114.49 153.982C114.289 155.767 114.067 157.518 113.802 159.265C113.749 159.645 113.931 159.992 114.234 160.173C114.33 160.23 114.451 160.281 114.576 160.29L114.56 160.281ZM117.481 138.101C117.547 136.322 117.582 134.524 117.601 132.717C117.613 132.226 117.21 131.812 116.71 131.816C116.209 131.82 115.805 132.207 115.809 132.707C115.8 134.499 115.759 136.271 115.676 138.041C115.668 138.382 115.837 138.678 116.124 138.85C116.252 138.926 116.399 138.97 116.548 138.973C117.055 138.994 117.469 138.592 117.481 138.101ZM82.6252 230.343C82.2961 229.952 81.7413 229.902 81.3499 230.231C79.9718 231.378 78.5681 232.423 77.1386 233.367C76.7184 233.635 76.6015 234.193 76.886 234.623C76.9691 234.738 77.0618 234.836 77.1735 234.903C77.4607 235.075 77.8273 235.077 78.133 234.892C79.6229 233.92 81.0808 232.82 82.5034 231.635C82.8853 231.322 82.9447 230.751 82.6156 230.359L82.6252 230.343ZM96.2748 213.944C95.8216 213.652 95.3023 213.796 95.029 214.218C94.0565 215.737 93.0712 217.205 92.0506 218.588C91.7614 218.999 91.8453 219.547 92.2476 219.853C92.2635 219.862 92.2954 219.881 92.3114 219.891C92.7103 220.129 93.2265 220.026 93.4968 219.646C94.5364 218.232 95.5503 216.716 96.5323 215.181C96.7896 214.75 96.6802 214.208 96.2589 213.935L96.2748 213.944ZM52.3889 238.264C50.7432 237.865 49.0845 237.307 47.4605 236.619C46.9916 236.425 46.4756 236.637 46.2661 237.096C46.0852 237.508 46.2488 237.995 46.6317 238.224C46.6636 238.243 46.6955 238.262 46.7434 238.291C48.4566 239.011 50.2207 239.61 51.9557 240.04C52.4468 240.16 52.9276 239.863 53.0478 239.372C53.1679 238.881 52.8705 238.4 52.3793 238.28L52.3889 238.264ZM90.079 222.649C89.7022 222.338 89.1158 222.377 88.8041 222.754C87.6592 224.127 86.444 225.436 85.2446 226.647C84.8851 226.995 84.8926 227.562 85.2408 227.922C85.3046 227.96 85.3589 228.014 85.4227 228.052C85.7738 228.262 86.2359 228.213 86.5254 227.91C87.7694 226.661 88.9876 225.31 90.1771 223.899C90.4982 223.506 90.4493 222.936 90.0726 222.624L90.079 222.649ZM73.8228 236.344C73.6147 235.895 73.0628 235.695 72.6202 235.929C71.0374 236.694 69.3969 237.338 67.7849 237.825C67.307 237.973 67.0275 238.477 67.175 238.955C67.2424 239.169 67.3863 239.363 67.5777 239.477C67.7852 239.601 68.0403 239.645 68.3047 239.565C70.0187 239.052 71.7451 238.372 73.414 237.572C73.863 237.364 74.0628 236.812 73.8292 236.37L73.8228 236.344ZM112.875 84.664C112.514 82.9115 112.128 81.1654 111.727 79.4097C111.604 78.9254 111.135 78.6235 110.635 78.736C110.151 78.8581 109.849 79.3273 109.961 79.8276C110.373 81.5673 110.743 83.3039 111.097 85.0309C111.161 85.2858 111.311 85.5055 111.519 85.6294C111.71 85.7438 111.94 85.7943 112.169 85.7365C112.66 85.6399 112.971 85.1548 112.875 84.664ZM27.5043 219.935C26.4561 218.573 25.4045 217.144 24.3815 215.666C24.1034 215.262 23.5358 215.161 23.1155 215.43C22.7112 215.708 22.6103 216.276 22.8885 216.68C23.9338 218.192 25.0078 219.656 26.0784 221.054C26.1551 221.143 26.2413 221.216 26.337 221.273C26.6402 221.454 27.0578 221.444 27.3506 221.207C27.7485 220.904 27.808 220.333 27.5043 219.935ZM109.117 75.1878C109.308 75.3022 109.564 75.3463 109.793 75.2885C110.277 75.1664 110.573 74.6717 110.451 74.1874C110.014 72.4542 109.551 70.7273 109.073 68.9909C108.951 68.5066 108.447 68.2271 107.953 68.3651C107.469 68.4872 107.189 68.9914 107.327 69.4853C107.815 71.2057 108.261 72.923 108.708 74.6403C108.766 74.8697 108.925 75.0734 109.117 75.1878ZM116.794 111.233C116.748 110.729 116.317 110.363 115.813 110.409C115.31 110.455 114.944 110.886 114.99 111.389C115.14 113.168 115.29 114.946 115.392 116.696C115.402 117.005 115.591 117.269 115.83 117.412C115.99 117.508 116.162 117.546 116.363 117.536C116.857 117.506 117.248 117.069 117.203 116.565C117.094 114.79 116.953 112.995 116.787 111.207L116.794 111.233ZM114.895 106.764C115.054 106.859 115.258 106.916 115.453 106.881C115.94 106.826 116.316 106.379 116.244 105.882C116.043 104.116 115.826 102.341 115.577 100.547C115.506 100.049 115.056 99.7155 114.569 99.7707C114.071 99.8418 113.737 100.292 113.793 100.78C114.035 102.548 114.252 104.323 114.447 106.064C114.483 106.366 114.649 106.596 114.888 106.739L114.895 106.764ZM34.5584 227.808C33.3288 226.64 32.099 225.364 30.8914 224.015C30.5527 223.64 29.9884 223.606 29.6129 223.944C29.2374 224.283 29.2035 224.847 29.5421 225.223C30.7721 226.607 32.0498 227.912 33.3177 229.124C33.3816 229.162 33.4199 229.206 33.4837 229.244C33.8348 229.454 34.2969 229.405 34.5959 229.086C34.9395 228.728 34.9161 228.151 34.5584 227.808ZM113.905 89.9346C113.809 89.4438 113.333 89.1164 112.842 89.213C112.352 89.3096 112.034 89.7693 112.121 90.276C112.44 92.0254 112.749 93.7908 113.027 95.5372C113.072 95.824 113.232 96.0277 113.455 96.1611C113.631 96.266 113.844 96.307 114.055 96.2811C114.552 96.21 114.879 95.7344 114.808 95.2372C114.54 93.4749 114.231 91.7095 113.905 89.9346Z" fill="#F411CF"/>
</g>
<defs>
<filter id="filter0_d_1_994" x="0.190979" y="0.312744" width="121.41" height="248.606" filterUnits="userSpaceOnUse" color-interpolation-filters="sRGB">
<feFlood flood-opacity="0" result="BackgroundImageFix"/>
<feColorMatrix in="SourceAlpha" type="matrix" values="0 0 0 0 0 0 0 0 0 0 0 0 0 0 0 0 0 0 127 0" result="hardAlpha"/>
<feOffset dy="4"/>
<feGaussianBlur stdDeviation="2"/>
<feComposite in2="hardAlpha" operator="out"/>
<feColorMatrix type="matrix" values="0 0 0 0 0 0 0 0 0 0 0 0 0 0 0 0 0 0 0.25 0"/>
<feBlend mode="normal" in2="BackgroundImageFix" result="effect1_dropShadow_1_994"/>
<feBlend mode="normal" in="SourceGraphic" in2="effect1_dropShadow_1_994" result="shape"/>
</filter>
</defs>
</svg>
